<mxfile host="app.diagrams.net" modified="2022-07-15T09:48:56.585Z" agent="5.0 (Windows NT 10.0; Win64; x64) AppleWebKit/537.36 (KHTML, like Gecko) Chrome/103.0.0.0 Safari/537.36" etag="-Fj-I7q24gBYb9Bl1Ngf" version="20.1.1" type="github">
  <diagram id="jAkjb9qOhjbaiIQoaHy9" name="Page-1">
    <mxGraphModel dx="10680" dy="4140" grid="1" gridSize="200" guides="1" tooltips="1" connect="1" arrows="1" fold="1" page="1" pageScale="1" pageWidth="3000" pageHeight="3000" background="#81D8D0" math="1" shadow="0">
      <root>
        <mxCell id="0" />
        <mxCell id="1" parent="0" />
        <mxCell id="qqJ_djHY32RG2-X8zSMV-7" value="" style="ellipse;whiteSpace=wrap;html=1;aspect=fixed;fillColor=none;strokeColor=#FFFFFF;strokeWidth=10;dashed=1;" vertex="1" parent="1">
          <mxGeometry x="1800" y="1600" width="400" height="400" as="geometry" />
        </mxCell>
        <mxCell id="C10PNqj7YdnSPqgfZ7z--4" value="Text" style="text;html=1;strokeColor=none;fillColor=none;align=center;verticalAlign=middle;whiteSpace=wrap;rounded=0;fontSize=120;fontFamily=Noto Serif TC;fontSource=https%3A%2F%2Ffonts.googleapis.com%2Fcss%3Ffamily%3DNoto%2BSerif%2BTC;" parent="1" vertex="1">
          <mxGeometry width="3000" height="600" as="geometry" />
        </mxCell>
        <mxCell id="qqJ_djHY32RG2-X8zSMV-6" value="" style="endArrow=none;html=1;rounded=0;strokeColor=#000000;strokeWidth=10;" parent="1" edge="1">
          <mxGeometry width="50" height="50" relative="1" as="geometry">
            <mxPoint x="400" y="1820" as="sourcePoint" />
            <mxPoint x="2600" y="1820" as="targetPoint" />
          </mxGeometry>
        </mxCell>
        <mxCell id="qqJ_djHY32RG2-X8zSMV-8" value="" style="endArrow=none;html=1;rounded=0;strokeColor=#FFFFFF;strokeWidth=10;" parent="1" edge="1">
          <mxGeometry width="50" height="50" relative="1" as="geometry">
            <mxPoint x="400" y="1860" as="sourcePoint" />
            <mxPoint x="2600" y="1860" as="targetPoint" />
          </mxGeometry>
        </mxCell>
        <mxCell id="qqJ_djHY32RG2-X8zSMV-9" value="" style="endArrow=none;html=1;rounded=0;strokeColor=#FFFFFF;strokeWidth=10;" parent="1" edge="1">
          <mxGeometry width="50" height="50" relative="1" as="geometry">
            <mxPoint x="400" y="1900" as="sourcePoint" />
            <mxPoint x="2600" y="1900" as="targetPoint" />
          </mxGeometry>
        </mxCell>
        <mxCell id="qqJ_djHY32RG2-X8zSMV-10" value="" style="endArrow=none;html=1;rounded=0;strokeColor=#FFFFFF;strokeWidth=10;dashed=1;" parent="1" edge="1">
          <mxGeometry width="50" height="50" relative="1" as="geometry">
            <mxPoint x="400" y="1940" as="sourcePoint" />
            <mxPoint x="1855" y="1940" as="targetPoint" />
          </mxGeometry>
        </mxCell>
        <mxCell id="qqJ_djHY32RG2-X8zSMV-11" value="" style="endArrow=none;html=1;rounded=0;strokeColor=#FFFFFF;strokeWidth=10;" parent="1" edge="1">
          <mxGeometry width="50" height="50" relative="1" as="geometry">
            <mxPoint x="400" y="1780" as="sourcePoint" />
            <mxPoint x="2600" y="1780" as="targetPoint" />
          </mxGeometry>
        </mxCell>
        <mxCell id="qqJ_djHY32RG2-X8zSMV-12" value="" style="endArrow=none;html=1;rounded=0;strokeColor=#FFFFFF;strokeWidth=10;" parent="1" edge="1">
          <mxGeometry width="50" height="50" relative="1" as="geometry">
            <mxPoint x="400" y="1740" as="sourcePoint" />
            <mxPoint x="2600" y="1740" as="targetPoint" />
          </mxGeometry>
        </mxCell>
        <mxCell id="qqJ_djHY32RG2-X8zSMV-13" value="" style="endArrow=none;html=1;rounded=0;strokeColor=#FFFFFF;strokeWidth=10;" parent="1" edge="1">
          <mxGeometry width="50" height="50" relative="1" as="geometry">
            <mxPoint x="400" y="1700" as="sourcePoint" />
            <mxPoint x="2600" y="1700" as="targetPoint" />
          </mxGeometry>
        </mxCell>
        <mxCell id="qqJ_djHY32RG2-X8zSMV-14" value="" style="endArrow=none;html=1;rounded=0;strokeColor=#FFFFFF;strokeWidth=10;dashed=1;" parent="1" edge="1">
          <mxGeometry width="50" height="50" relative="1" as="geometry">
            <mxPoint x="400" y="1660" as="sourcePoint" />
            <mxPoint x="1855" y="1660" as="targetPoint" />
          </mxGeometry>
        </mxCell>
        <mxCell id="qqJ_djHY32RG2-X8zSMV-15" value="" style="endArrow=none;html=1;rounded=0;strokeColor=#FFFFFF;strokeWidth=10;startSize=30;startArrow=oval;startFill=0;" parent="1" edge="1">
          <mxGeometry width="50" height="50" relative="1" as="geometry">
            <mxPoint x="300" y="1940" as="sourcePoint" />
            <mxPoint x="400" y="1900" as="targetPoint" />
          </mxGeometry>
        </mxCell>
        <mxCell id="qqJ_djHY32RG2-X8zSMV-16" value="" style="endArrow=none;html=1;rounded=0;strokeColor=#FFFFFF;strokeWidth=10;startSize=30;startArrow=oval;startFill=0;" parent="1" edge="1">
          <mxGeometry width="50" height="50" relative="1" as="geometry">
            <mxPoint x="200" y="1940" as="sourcePoint" />
            <mxPoint x="400" y="1860" as="targetPoint" />
          </mxGeometry>
        </mxCell>
        <mxCell id="qqJ_djHY32RG2-X8zSMV-17" value="" style="endArrow=none;html=1;rounded=0;strokeColor=#FFFFFF;strokeWidth=10;startSize=30;startArrow=oval;startFill=0;" parent="1" edge="1">
          <mxGeometry width="50" height="50" relative="1" as="geometry">
            <mxPoint x="100" y="1940" as="sourcePoint" />
            <mxPoint x="400" y="1820" as="targetPoint" />
          </mxGeometry>
        </mxCell>
        <mxCell id="qqJ_djHY32RG2-X8zSMV-18" value="" style="endArrow=none;html=1;rounded=0;strokeColor=#FFFFFF;strokeWidth=10;startSize=30;startArrow=oval;startFill=0;" parent="1" edge="1">
          <mxGeometry width="50" height="50" relative="1" as="geometry">
            <mxPoint x="100" y="1660" as="sourcePoint" />
            <mxPoint x="400" y="1780" as="targetPoint" />
          </mxGeometry>
        </mxCell>
        <mxCell id="qqJ_djHY32RG2-X8zSMV-19" value="" style="endArrow=none;html=1;rounded=0;strokeColor=#FFFFFF;strokeWidth=10;startArrow=oval;startFill=0;startSize=30;" parent="1" edge="1">
          <mxGeometry width="50" height="50" relative="1" as="geometry">
            <mxPoint x="200" y="1660" as="sourcePoint" />
            <mxPoint x="400" y="1740" as="targetPoint" />
          </mxGeometry>
        </mxCell>
        <mxCell id="qqJ_djHY32RG2-X8zSMV-20" value="" style="endArrow=none;html=1;rounded=0;strokeColor=#FFFFFF;strokeWidth=10;startArrow=oval;startFill=0;targetPerimeterSpacing=0;endSize=6;endFill=0;sourcePerimeterSpacing=0;startSize=30;" parent="1" edge="1">
          <mxGeometry width="50" height="50" relative="1" as="geometry">
            <mxPoint x="300" y="1660" as="sourcePoint" />
            <mxPoint x="400" y="1700" as="targetPoint" />
          </mxGeometry>
        </mxCell>
        <mxCell id="qqJ_djHY32RG2-X8zSMV-21" value="" style="endArrow=none;html=1;rounded=0;strokeColor=#FFFFFF;strokeWidth=10;dashed=1;" parent="1" edge="1">
          <mxGeometry width="50" height="50" relative="1" as="geometry">
            <mxPoint x="300" y="1980" as="sourcePoint" />
            <mxPoint x="400" y="1940" as="targetPoint" />
          </mxGeometry>
        </mxCell>
        <mxCell id="qqJ_djHY32RG2-X8zSMV-22" value="" style="endArrow=none;html=1;rounded=0;strokeColor=#FFFFFF;strokeWidth=10;dashed=1;" parent="1" edge="1">
          <mxGeometry width="50" height="50" relative="1" as="geometry">
            <mxPoint x="300" y="1620" as="sourcePoint" />
            <mxPoint x="400" y="1660" as="targetPoint" />
          </mxGeometry>
        </mxCell>
        <mxCell id="qqJ_djHY32RG2-X8zSMV-23" value="" style="endArrow=none;html=1;rounded=0;strokeColor=#FFFFFF;strokeWidth=10;dashed=1;" parent="1" edge="1">
          <mxGeometry width="50" height="50" relative="1" as="geometry">
            <mxPoint y="1620" as="sourcePoint" />
            <mxPoint x="300" y="1620" as="targetPoint" />
          </mxGeometry>
        </mxCell>
        <mxCell id="qqJ_djHY32RG2-X8zSMV-24" value="" style="endArrow=none;html=1;rounded=0;strokeColor=#FFFFFF;strokeWidth=10;dashed=1;" parent="1" edge="1">
          <mxGeometry width="50" height="50" relative="1" as="geometry">
            <mxPoint y="1980" as="sourcePoint" />
            <mxPoint x="300" y="1980" as="targetPoint" />
          </mxGeometry>
        </mxCell>
        <mxCell id="qqJ_djHY32RG2-X8zSMV-25" value="" style="endArrow=none;html=1;rounded=0;strokeColor=#000000;strokeWidth=20;" parent="1" edge="1">
          <mxGeometry width="50" height="50" relative="1" as="geometry">
            <mxPoint x="400" y="1940" as="sourcePoint" />
            <mxPoint x="400" y="1660" as="targetPoint" />
          </mxGeometry>
        </mxCell>
        <mxCell id="qqJ_djHY32RG2-X8zSMV-26" value="" style="endArrow=none;html=1;rounded=0;strokeColor=#000000;strokeWidth=20;" parent="1" edge="1">
          <mxGeometry width="50" height="50" relative="1" as="geometry">
            <mxPoint x="2600" y="1940" as="sourcePoint" />
            <mxPoint x="2600" y="1660" as="targetPoint" />
          </mxGeometry>
        </mxCell>
        <mxCell id="qqJ_djHY32RG2-X8zSMV-27" value="" style="curved=1;endArrow=none;html=1;rounded=0;strokeColor=#FFFFFF;strokeWidth=10;endFill=0;dashed=1;" parent="1" edge="1">
          <mxGeometry width="50" height="50" relative="1" as="geometry">
            <mxPoint x="1500" y="1660" as="sourcePoint" />
            <mxPoint x="3000" y="1800" as="targetPoint" />
            <Array as="points">
              <mxPoint x="1500" y="1260" />
              <mxPoint x="2200" y="1400" />
              <mxPoint x="2500" y="1100" />
              <mxPoint x="3000" y="1100" />
            </Array>
          </mxGeometry>
        </mxCell>
        <mxCell id="qqJ_djHY32RG2-X8zSMV-1" value="" style="curved=1;endArrow=none;html=1;rounded=0;strokeColor=#FFFFFF;strokeWidth=10;endFill=0;dashed=1;" edge="1" parent="1">
          <mxGeometry width="50" height="50" relative="1" as="geometry">
            <mxPoint x="1500" y="1940" as="sourcePoint" />
            <mxPoint x="3000" y="1800" as="targetPoint" />
            <Array as="points">
              <mxPoint x="1500" y="2340" />
              <mxPoint x="2200" y="2200" />
              <mxPoint x="2500" y="2500" />
              <mxPoint x="3000" y="2500" />
            </Array>
          </mxGeometry>
        </mxCell>
      </root>
    </mxGraphModel>
  </diagram>
</mxfile>
